<svg xmlns="http://www.w3.org/2000/svg" xmlns:xlink="http://www.w3.org/1999/xlink" width="168" height="38" viewBox="0 0 168 38">
    <defs>
        <path id="a" d="M0 38h128.25V0H0z"/>
    </defs>
    <g fill="none" fill-rule="evenodd">
        <path fill="#A1A1A1" d="M0 0h168v38H0z"/>
        <path fill="#A1A1A1" d="M20 0v38h128.25V0z"/>
        <g transform="translate(20)">
            <path fill="#FFF" d="M28.622 18.795c-.028-3.062 2.507-4.551 2.622-4.62-1.435-2.094-3.66-2.38-4.442-2.402-1.868-.197-3.681 1.118-4.633 1.118-.97 0-2.437-1.1-4.016-1.067-2.033.031-3.935 1.208-4.978 3.036-2.153 3.727-.548 9.204 1.515 12.216 1.031 1.475 2.237 3.123 3.815 3.064 1.544-.063 2.12-.983 3.983-.983 1.846 0 2.388.983 3.997.947 1.657-.027 2.7-1.482 3.695-2.972 1.193-1.69 1.672-3.355 1.69-3.44-.038-.014-3.217-1.227-3.248-4.897M25.582 9.79c.83-1.037 1.398-2.45 1.24-3.884-1.201.054-2.704.832-3.57 1.847-.765.895-1.45 2.362-1.273 3.741 1.35.1 2.736-.68 3.603-1.703M47.267 24.657l-1.069-3.3c-.113-.338-.324-1.132-.637-2.383h-.038a91.913 91.913 0 0 1-.6 2.382l-1.05 3.301h3.394zm3.696 5.272h-2.158l-1.182-3.714h-4.107L42.39 29.93h-2.1l4.07-12.643h2.513l4.09 12.643zM59.366 25.333c0-.888-.2-1.62-.6-2.195-.439-.6-1.027-.9-1.764-.9-.5 0-.954.167-1.36.496a2.305 2.305 0 0 0-.796 1.305c-.063.25-.094.456-.094.617v1.52c0 .663.203 1.223.61 1.68.406.457.934.685 1.584.685.763 0 1.357-.295 1.781-.882.426-.588.639-1.363.639-2.326m2.063-.074c0 1.55-.419 2.776-1.257 3.675-.75.801-1.682 1.2-2.795 1.2-1.2 0-2.063-.43-2.588-1.293h-.038v4.802h-2.026v-9.83c0-.974-.025-1.974-.075-3h1.781l.113 1.445h.038c.676-1.09 1.7-1.633 3.077-1.633 1.075 0 1.973.425 2.69 1.275.721.852 1.08 1.97 1.08 3.359M69.85 25.333c0-.888-.2-1.62-.601-2.195-.438-.6-1.024-.9-1.762-.9-.501 0-.953.167-1.36.496a2.305 2.305 0 0 0-.797 1.305c-.06.25-.093.456-.093.617v1.52c0 .663.202 1.223.607 1.68.407.456.936.685 1.587.685.763 0 1.357-.295 1.782-.882.424-.588.638-1.363.638-2.326m2.063-.074c0 1.55-.42 2.776-1.257 3.675-.75.801-1.682 1.2-2.795 1.2-1.2 0-2.064-.43-2.587-1.293h-.038v4.802H63.21v-9.83c0-.974-.025-1.974-.075-3h1.782l.113 1.445h.038c.674-1.09 1.7-1.633 3.076-1.633 1.074 0 1.971.425 2.692 1.275.717.852 1.077 1.97 1.077 3.359M83.637 26.384c0 1.075-.373 1.95-1.123 2.626-.823.738-1.97 1.106-3.444 1.106-1.36 0-2.45-.263-3.276-.787l.47-1.69c.888.54 1.864.81 2.927.81.763 0 1.357-.175 1.783-.518.425-.343.637-.806.637-1.38 0-.514-.175-.946-.527-1.297-.347-.351-.93-.676-1.743-.978-2.214-.826-3.32-2.034-3.32-3.624 0-1.04.389-1.892 1.165-2.556.772-.663 1.805-.995 3.095-.995 1.15 0 2.106.2 2.869.6l-.507 1.652c-.712-.389-1.519-.582-2.42-.582-.712 0-1.268.175-1.667.526a1.5 1.5 0 0 0-.507 1.144c0 .5.193.913.58 1.238.338.3.95.625 1.84.975 1.088.438 1.887.95 2.4 1.537.512.586.768 1.318.768 2.193M90.334 22.332H88.1v4.426c0 1.126.393 1.69 1.183 1.69.36 0 .661-.033.898-.095l.057 1.538c-.4.149-.925.224-1.576.224-.8 0-1.425-.243-1.875-.732-.45-.488-.676-1.307-.676-2.457V22.33h-1.33v-1.52h1.33v-1.67l1.989-.6v2.27h2.233v1.521zM98.305 25.361c0-.841-.179-1.562-.543-2.163-.425-.727-1.032-1.09-1.818-1.09-.815 0-1.433.364-1.857 1.09-.364.602-.545 1.335-.545 2.201 0 .841.18 1.562.545 2.162.438.728 1.048 1.091 1.838 1.091.774 0 1.38-.371 1.818-1.11.374-.613.562-1.34.562-2.18m2.102-.066c0 1.4-.402 2.552-1.202 3.45-.839.928-1.951 1.388-3.34 1.388-1.338 0-2.403-.442-3.197-1.33-.794-.888-1.191-2.007-1.191-3.357 0-1.413.408-2.57 1.228-3.47.82-.901 1.923-1.35 3.311-1.35 1.337 0 2.414.442 3.225 1.332.778.861 1.166 1.974 1.166 3.337M106.99 22.594a3.523 3.523 0 0 0-.638-.057c-.713 0-1.264.27-1.651.808-.338.475-.507 1.076-.507 1.8v4.784h-2.024l.019-6.246c0-1.05-.026-2.007-.076-2.87h1.764l.074 1.745h.056c.214-.6.55-1.082 1.013-1.445a2.454 2.454 0 0 1 1.464-.487c.187 0 .356.012.506.037v1.931zM114.117 24.414c.013-.6-.119-1.119-.393-1.558-.351-.562-.89-.843-1.615-.843-.662 0-1.2.274-1.612.825-.337.438-.537.963-.6 1.575h4.22v.001zm1.931.526c0 .362-.024.668-.074.918h-6.076c.024.9.317 1.589.882 2.064.512.425 1.174.638 1.987.638.9 0 1.72-.143 2.459-.431l.317 1.406c-.863.376-1.881.562-3.056.562-1.414 0-2.524-.415-3.331-1.246-.806-.832-1.21-1.948-1.21-3.348 0-1.375.376-2.52 1.127-3.432.787-.975 1.85-1.462 3.188-1.462 1.313 0 2.308.487 2.984 1.462.534.774.803 1.73.803 2.869zM45.548 9.536c0-.725-.192-1.28-.576-1.668-.384-.387-.944-.58-1.683-.58-.313 0-.58.02-.801.064v4.645c.122.019.346.027.672.027.762 0 1.35-.212 1.764-.635.415-.424.624-1.042.624-1.853m1.05-.027c0 1.118-.336 1.96-1.006 2.525-.62.521-1.502.783-2.644.783-.566 0-1.05-.025-1.456-.075V6.633c.53-.086 1.1-.13 1.715-.13 1.088 0 1.907.237 2.46.71.62.535.93 1.3.93 2.296M51.13 10.517c0-.413-.089-.767-.266-1.063-.21-.357-.507-.536-.893-.536-.4 0-.704.179-.913.536-.179.296-.267.656-.267 1.081 0 .414.09.768.267 1.063.215.358.516.536.903.536.38 0 .679-.181.893-.545.185-.301.277-.658.277-1.072m1.032-.032c0 .689-.196 1.253-.59 1.696-.412.455-.958.682-1.64.682-.658 0-1.181-.218-1.572-.655-.389-.436-.584-.986-.584-1.649 0-.693.2-1.262.603-1.704.403-.442.945-.663 1.627-.663.657 0 1.185.217 1.585.653.38.424.571.971.571 1.64M59.627 8.283l-1.401 4.479h-.912l-.58-1.945a14.554 14.554 0 0 1-.36-1.447h-.019c-.086.492-.206.974-.36 1.447l-.617 1.945h-.922l-1.318-4.479h1.023l.507 2.13c.122.503.223.982.304 1.437h.018c.074-.375.197-.852.37-1.428l.635-2.138h.811l.61 2.092c.146.51.266 1.001.358 1.474h.028c.067-.46.169-.951.304-1.474l.543-2.092h.978zM64.788 12.761h-.995v-2.565c0-.79-.3-1.185-.903-1.185a.898.898 0 0 0-.719.326 1.156 1.156 0 0 0-.276.767v2.656h-.996V9.563c0-.394-.012-.82-.036-1.282h.875l.046.7h.028c.116-.217.289-.397.516-.54.27-.167.572-.252.902-.252.418 0 .766.135 1.042.406.343.331.516.826.516 1.484v2.682z"/>
            <mask id="b" fill="#fff">
                <use xlink:href="#a"/>
            </mask>
            <path fill="#FFF" d="M66.539 12.761h.995V6.228h-.995zM72.361 10.517c0-.413-.089-.767-.267-1.063-.208-.357-.505-.536-.892-.536-.4 0-.704.179-.913.536-.178.296-.266.656-.266 1.081 0 .414.089.768.266 1.063.216.358.516.536.905.536.379 0 .676-.181.891-.545.185-.301.276-.658.276-1.072m1.034-.032c0 .689-.197 1.253-.59 1.696-.412.455-.96.682-1.64.682-.659 0-1.182-.218-1.572-.655-.39-.436-.584-.986-.584-1.649 0-.693.2-1.262.603-1.704.403-.442.944-.663 1.626-.663.658 0 1.185.217 1.586.653.38.424.571.971.571 1.64M77.18 11.222v-.69c-1.098-.02-1.647.282-1.647.902 0 .234.062.409.19.526.129.116.291.174.487.174.219 0 .423-.069.61-.207a.847.847 0 0 0 .36-.705m1.034 1.54h-.895l-.074-.517h-.027c-.306.412-.742.618-1.308.618-.423 0-.766-.136-1.022-.406a1.272 1.272 0 0 1-.35-.912c0-.547.227-.964.685-1.253.459-.288 1.103-.43 1.932-.423v-.084c0-.59-.31-.884-.93-.884-.441 0-.83.11-1.167.331l-.203-.653c.417-.258.93-.387 1.537-.387 1.169 0 1.757.617 1.757 1.852v1.65c0 .447.022.803.065 1.067M82.84 10.873v-.747a1.134 1.134 0 0 0-.388-.917.98.98 0 0 0-.666-.244 1.02 1.02 0 0 0-.876.443c-.212.295-.32.672-.32 1.133 0 .443.102.802.306 1.078.216.295.506.442.87.442a.96.96 0 0 0 .787-.369c.191-.227.286-.5.286-.82m1.032 1.89h-.884l-.047-.72h-.027c-.282.547-.763.82-1.439.82-.539 0-.989-.211-1.345-.635-.356-.423-.533-.973-.533-1.649 0-.725.193-1.312.58-1.76.376-.418.835-.627 1.382-.627.602 0 1.023.202 1.261.608h.02V6.228h.997v5.327c0 .436.011.838.035 1.206M91.354 10.517c0-.413-.09-.767-.267-1.063-.21-.357-.506-.536-.894-.536-.4 0-.703.179-.914.536-.177.296-.266.656-.266 1.081 0 .414.09.768.266 1.063.217.358.517.536.905.536.38 0 .678-.181.894-.545.183-.301.276-.658.276-1.072m1.032-.032c0 .689-.197 1.253-.59 1.696-.413.455-.958.682-1.64.682-.657 0-1.18-.218-1.572-.655-.39-.436-.584-.986-.584-1.649 0-.693.2-1.262.603-1.704.403-.442.944-.663 1.626-.663.658 0 1.186.217 1.586.653.38.424.57.971.57 1.64M97.739 12.761h-.995v-2.565c0-.79-.3-1.185-.903-1.185a.895.895 0 0 0-.719.326 1.151 1.151 0 0 0-.276.767v2.656h-.997V9.563c0-.394-.01-.82-.035-1.282h.874l.047.7h.027c.117-.217.29-.397.516-.54.27-.167.572-.252.904-.252.417 0 .764.135 1.04.406.346.331.517.826.517 1.484v2.682zM104.439 9.029h-1.096v2.175c0 .553.195.83.58.83.18 0 .328-.016.444-.047l.025.755c-.196.074-.454.111-.772.111-.393 0-.7-.12-.922-.359-.221-.24-.332-.642-.332-1.207V9.029h-.654v-.746h.654v-.82l.976-.295v1.114h1.096v.747zM109.71 12.761h-.997v-2.546c0-.802-.3-1.204-.9-1.204-.463 0-.778.233-.95.698-.03.098-.048.218-.048.358v2.693h-.995V6.228h.995v2.7h.02c.313-.492.761-.737 1.345-.737.411 0 .753.135 1.024.406.336.337.506.838.506 1.502v2.662zM114.197 10.053a1.34 1.34 0 0 0-.193-.765c-.173-.276-.436-.415-.793-.415a.945.945 0 0 0-.792.406 1.507 1.507 0 0 0-.295.774h2.073zm.95.257c0 .179-.014.329-.037.452h-2.986c.013.442.156.78.432 1.013.253.21.579.314.978.314.441 0 .844-.07 1.207-.212l.156.691c-.425.185-.925.277-1.503.277-.694 0-1.24-.204-1.635-.613-.397-.408-.594-.956-.594-1.644 0-.676.184-1.238.553-1.686.386-.48.907-.719 1.566-.719.644 0 1.133.24 1.464.719.267.38.399.85.399 1.408z" mask="url(#b)"/>
        </g>
    </g>
</svg>
