<svg xmlns="http://www.w3.org/2000/svg" xmlns:xlink="http://www.w3.org/1999/xlink" width="84" height="91" viewBox="0 0 84 91">
    <defs>
        <path id="a" d="M0 90.392h83.837V0H0z"/>
    </defs>
    <g fill="none" fill-rule="evenodd">
        <path stroke="#949494" d="M32.334 38.808H.5V25.954h82.839v12.854H51.503M51.502 38.808H78.36v51.085H5.478V38.808h26.857"/>
        <mask id="b" fill="#fff">
            <use xlink:href="#a"/>
        </mask>
        <path stroke="#949494" d="M32.335 89.892h19.168V25.954H32.335z" mask="url(#b)"/>
        <path stroke="#949494" stroke-linejoin="round" d="M19.588 18.708c-4.165-4.166-4.165-10.919 0-15.084 4.166-4.166 10.92-4.166 15.084 0 4.165 4.165 7.246 22.33 7.246 22.33s-18.164-3.081-22.33-7.246zM64.249 18.708c4.165-4.166 4.165-10.919 0-15.084-4.165-4.166-10.92-4.166-15.084 0-4.165 4.165-7.246 22.33-7.246 22.33s18.165-3.081 22.33-7.246z" mask="url(#b)"/>
    </g>
</svg>
