<svg xmlns="http://www.w3.org/2000/svg" xmlns:xlink="http://www.w3.org/1999/xlink" width="13" height="12" viewBox="0 0 13 12">
    <defs>
        <path id="a" d="M0 .049h4.476v6.469H0z"/>
        <path id="c" d="M.02.044h6.255v5.639H.02z"/>
        <path id="e" d="M.046.07h5.7v10.583h-5.7z"/>
    </defs>
    <g fill="none" fill-rule="evenodd">
        <g transform="translate(0 1.04)">
            <mask id="b" fill="#fff">
                <use xlink:href="#a"/>
            </mask>
            <path fill="#000" d="M2.594.049C.654 1.354-.36 3.55.116 5.904c.558.436 1.24.614 1.962.614.144 0 .289 0 .433-.02.847-.139 1.57-.811 1.859-1.622.35-.93-.269-1.9-.434-2.216L2.594.049" mask="url(#b)"/>
        </g>
        <g transform="translate(1.109 5.89)">
            <mask id="d" fill="#fff">
                <use xlink:href="#c"/>
            </mask>
            <path fill="#000" d="M3.921.044C3.881 1.706 2.063 3.17.33 3.17c-.103 0-.207 0-.31-.02.93 1.583 3.262 2.533 4.811 2.533.743 0 1.3-.218 1.445-.673L3.921.044" mask="url(#d)"/>
        </g>
        <g transform="translate(4.158 .07)">
            <mask id="f" fill="#fff">
                <use xlink:href="#e"/>
            </mask>
            <path fill="#000" d="M.707.07C.521.07.315.108.047.306l4.996 10.346c.207-.079.599-.277.702-.692L.996.089C.893.09.79.07.707.07" mask="url(#f)"/>
        </g>
        <path fill="#000" d="M7.28.178l4.027 8.408c2.024-2.928.33-7.735-4.026-8.408"/>
    </g>
</svg>
