<svg xmlns="http://www.w3.org/2000/svg" width="16" height="16" viewBox="0 0 16 16">
    <g fill="#B1AAAA">
        <path d="M7.68 0C3.435 0 0 3.435 0 7.68c0 4.245 3.435 7.68 7.68 7.68 4.245 0 7.68-3.435 7.68-7.68C15.36 3.435 11.925 0 7.68 0zm0 14.16c-3.582 0-6.48-2.898-6.48-6.48 0-3.582 2.898-6.48 6.48-6.48 3.582 0 6.48 2.898 6.48 6.48 0 3.582-2.898 6.48-6.48 6.48z"/>
        <path d="M7.68 3.866c-.331 0-.6.269-.6.6V8.33c0 .331.269.6.6.6.331 0 .6-.269.6-.6V4.466c0-.331-.269-.6-.6-.6z"/>
        <circle cx="7.68" cy="10.475" r="1"/>
    </g>
</svg>

