<svg xmlns="http://www.w3.org/2000/svg" xmlns:xlink="http://www.w3.org/1999/xlink" width="59" height="60" viewBox="0 0 59 60">
    <defs>
        <path id="prefix__a" d="M0 0.6L58.44 0.6 58.44 59.04 0 59.04z"/>
    </defs>
    <g fill="none" fill-rule="evenodd">
        <mask id="prefix__b" fill="#fff">
            <use xlink:href="#prefix__a"/>
        </mask>
        <path fill="#949494" d="M29.22 1.649c-15.533 0-28.171 12.637-28.171 28.171 0 15.534 12.638 28.171 28.171 28.171s28.171-12.637 28.171-28.17c0-15.535-12.638-28.172-28.171-28.172m0 57.391C13.108 59.04 0 45.932 0 29.82S13.108.6 29.22.6s29.22 13.108 29.22 29.22-13.108 29.22-29.22 29.22" mask="url(#prefix__b)"/>
        <path fill="#949494" d="M39.655 22.518c-1.15 0-2.085.936-2.085 2.085 0 1.15.935 2.084 2.085 2.084s2.084-.935 2.084-2.084c0-1.15-.935-2.085-2.084-2.085m0 5.218c-1.728 0-3.133-1.405-3.133-3.133s1.405-3.133 3.133-3.133c1.727 0 3.133 1.405 3.133 3.133s-1.406 3.133-3.133 3.133M17.48 43.388c-.091 0-.225-.023-.349-.134-.215-.192-.233-.525-.04-.74 3.066-3.427 7.487-5.392 12.13-5.392 4.64 0 9.06 1.965 12.129 5.392.192.215.174.548-.041.74-.096.087-.22.134-.35.134-.15 0-.29-.063-.389-.173-2.87-3.207-7.006-5.045-11.35-5.045-4.344 0-8.48 1.838-11.349 5.043-.1.113-.24.175-.391.175M18.82 22.518c-1.15 0-2.085.936-2.085 2.085 0 1.15.935 2.084 2.084 2.084 1.15 0 2.085-.935 2.085-2.084 0-1.15-.935-2.085-2.085-2.085m0 5.218c-1.727 0-3.132-1.405-3.132-3.133s1.405-3.133 3.132-3.133c1.728 0 3.133 1.405 3.133 3.133s-1.405 3.133-3.133 3.133" mask="url(#prefix__b)"/>
    </g>
</svg>
