<svg xmlns="http://www.w3.org/2000/svg" xmlns:xlink="http://www.w3.org/1999/xlink" width="121" height="12" viewBox="0 0 121 12">
    <defs>
        <path id="a" d="M.272.37h2.39v2.339H.272z"/>
    </defs>
    <g fill="none" fill-rule="evenodd">
        <path fill="#231F20" d="M4.49 9.132h.278c-.286.999-1.003 1.498-2.15 1.498-.738 0-1.358-.255-1.862-.765S0 8.68 0 7.839c0-.861.272-1.56.816-2.096.544-.536 1.187-.804 1.929-.804.447 0 .858.1 1.233.299.375.2.563.443.563.73a.5.5 0 0 1-.104.303.351.351 0 0 1-.3.14c-.28 0-.45-.164-.513-.495-.05-.248-.129-.422-.234-.52-.11-.099-.322-.148-.639-.148-.565 0-.99.199-1.274.598-.285.399-.427 1-.427 1.8 0 .828.152 1.475.459 1.943.305.467.768.7 1.387.7.835 0 1.367-.385 1.594-1.157M8.71 1.576V8.61c0 .562.007.915.021 1.061a.449.449 0 0 0 .18.334c.106.078.294.116.564.116h.152v.296h-2.77v-.296h.176c.254 0 .434-.035.541-.106a.426.426 0 0 0 .193-.299c.021-.128.032-.497.032-1.106V3.402c0-.553-.049-.9-.146-1.045-.097-.144-.333-.215-.708-.215v-.296c.257 0 .56-.03.907-.09.348-.06.588-.12.718-.18h.14zM16.789 5.151v3.454c0 .574.008.934.025 1.08.017.146.08.255.187.328.108.073.3.11.579.11v.295c-.641.009-1.11.078-1.404.206h-.077c-.134-.236-.206-.643-.214-1.222-.258.408-.552.714-.883.92-.33.205-.696.308-1.097.308-.346 0-.651-.08-.917-.24-.265-.162-.448-.358-.547-.59-.1-.23-.149-.58-.149-1.047V6.958c0-.608-.01-.98-.031-1.115a.396.396 0 0 0-.2-.3c-.111-.063-.317-.096-.616-.096v-.296h1.758v3.653c0 .36.021.622.063.785.042.163.15.305.323.427.173.122.373.184.6.184.325 0 .636-.109.93-.325.295-.217.497-.446.604-.688.108-.242.162-.589.162-1.039v-1.19c0-.574-.006-.924-.02-1.048a.515.515 0 0 0-.16-.324c-.096-.093-.293-.139-.592-.139h-.133v-.296h1.809zM21.185 6.122v2.065c0 .531.035.914.104 1.148.07.233.237.457.503.672.266.214.575.321.93.321.543 0 .977-.227 1.3-.682.322-.454.483-1.108.483-1.961 0-.784-.15-1.382-.452-1.791a1.424 1.424 0 0 0-1.205-.614c-.287 0-.568.07-.844.209-.276.14-.55.35-.82.633m-.663 4.508h-.247V3.582c0-.514-.014-.846-.04-.996a.482.482 0 0 0-.21-.335c-.111-.073-.307-.11-.585-.11v-.295c.25 0 .549-.03.898-.09.35-.06.589-.12.715-.18h.133v4.167a3.31 3.31 0 0 1 .898-.604c.304-.133.611-.2.923-.2.747 0 1.358.264 1.834.791.477.528.715 1.2.715 2.02 0 .823-.245 1.509-.733 2.057-.49.55-1.124.823-1.904.823a2.02 2.02 0 0 1-1.009-.244 1.994 1.994 0 0 1-.724-.726 3.372 3.372 0 0 0-.664.97M39.713 10.418h-4.301v-.591c.37 0 .643-.038.816-.113.173-.075.286-.184.338-.328.053-.144.08-.34.08-.589V3.331l-3.239 7.087h-.385l-3.283-7.087v5.19c0 .275.01.485.028.63.02.146.068.27.146.374a.688.688 0 0 0 .37.227c.168.05.403.075.702.075v.591H27.81v-.591c.304 0 .539-.027.705-.077a.686.686 0 0 0 .364-.232.76.76 0 0 0 .14-.37c.016-.144.024-.352.024-.627V3.582c0-.369-.019-.634-.057-.797a.541.541 0 0 0-.313-.37c-.17-.084-.458-.126-.863-.126v-.591h3.137l2.846 6.155 2.852-6.155h3.068v.591c-.528 0-.868.08-1.022.236-.154.156-.23.42-.23.794v5.478c0 .237.025.427.075.573.05.146.168.259.351.338.183.079.459.119.826.119v.591zM47.024 7.35L45.841 4.31 44.715 7.35h2.31zm3.77 3.068h-4.042v-.591c.341 0 .59-.025.746-.075.156-.049.234-.165.234-.35a1.1 1.1 0 0 0-.075-.392l-.405-1.029h-2.783l-.209.566c-.118.317-.177.547-.177.688 0 .257.098.42.294.489.196.068.425.103.686.103v.591H42.11v-.591c.236 0 .436-.046.601-.136.164-.09.321-.26.471-.51.15-.252.311-.606.484-1.065l2.473-6.585h.6l2.613 6.791c.189.48.328.805.417.974.089.17.21.3.367.392.155.093.375.139.657.139v.591zM58.904 4.02c0-.695-.208-1.156-.623-1.383-.415-.227-.958-.34-1.628-.34-.093 0-.166 0-.218.002a3.934 3.934 0 0 1-.18.004v3.504h.398c.636 0 1.17-.105 1.603-.315.432-.21.648-.7.648-1.473zm3.555 6.398h-2.296a4.234 4.234 0 0 1-.314-.412c-.124-.18-.26-.39-.407-.633l-.367-.601-.582-.977c-.261-.438-.459-.737-.59-.898a.883.883 0 0 0-.456-.308c-.171-.046-.461-.068-.87-.068h-.323v2.277c0 .24.026.433.076.578.05.146.17.258.357.335.188.077.461.116.82.116v.591h-4.3v-.591c.522 0 .858-.078 1.008-.232.15-.154.224-.42.224-.797V3.293c0-.373-.073-.638-.218-.794-.145-.157-.484-.235-1.015-.235v-.605l1.986-.064c.152-.008.325-.015.521-.02.197-.003.379-.006.548-.006.13 0 .347.005.65.013.427.013.825.039 1.196.077.371.04.664.088.88.148.316.082.616.217.9.405.285.189.517.438.696.747a2.1 2.1 0 0 1 .269 1.074 1.957 1.957 0 0 1-.787 1.582c-.277.213-.64.383-1.091.508.307.184.569.412.784.684.215.273.552.773 1.012 1.502.265.416.485.73.657.942.173.212.332.356.478.43.145.076.33.124.554.146v.591zM70.516 4.02c0-.695-.208-1.156-.623-1.383-.415-.227-.958-.34-1.628-.34-.093 0-.166 0-.218.002a3.934 3.934 0 0 1-.18.004v3.504h.398c.636 0 1.17-.105 1.603-.315.432-.21.648-.7.648-1.473zm3.554 6.398h-2.295a4.227 4.227 0 0 1-.314-.412c-.124-.18-.26-.39-.407-.633l-.367-.601-.582-.977c-.261-.438-.459-.737-.591-.898a.881.881 0 0 0-.456-.308c-.17-.046-.46-.068-.87-.068h-.322v2.277c0 .24.025.433.076.578.05.146.17.258.357.335.188.077.46.116.82.116v.591h-4.301v-.591c.522 0 .859-.078 1.009-.232.15-.154.224-.42.224-.797V3.293c0-.373-.073-.638-.218-.794-.146-.157-.484-.235-1.015-.235v-.605l1.986-.064c.152-.008.325-.015.521-.02.197-.003.379-.006.547-.006.131 0 .348.005.652.013.426.013.824.039 1.195.077.371.04.664.088.88.148.315.082.616.217.9.405.285.189.517.438.696.747.18.308.269.666.269 1.074 0 .291-.062.574-.186.848a1.958 1.958 0 0 1-.601.733c-.277.214-.64.384-1.091.509.307.184.569.412.784.684.215.273.552.773 1.012 1.502.265.416.485.73.658.942.172.212.331.356.477.43.146.076.33.124.553.146v.591zM80.734 10.418h-4.35v-.591c.362 0 .636-.036.82-.106.187-.071.308-.177.365-.319.057-.141.085-.343.085-.605V3.32c0-.378-.077-.643-.23-.798-.155-.154-.502-.232-1.04-.232v-.591h4.35v.591c-.362 0-.637.037-.822.11-.186.073-.307.179-.364.318-.057.14-.085.34-.085.602v5.478c0 .25.028.444.082.586.055.142.172.25.351.328.18.077.459.116.838.116v.591zM90.54 6.032a7.52 7.52 0 0 0-.124-1.389 3.675 3.675 0 0 0-.433-1.186 2.3 2.3 0 0 0-.847-.843c-.359-.207-.802-.311-1.329-.311-.725 0-1.29.183-1.698.55a2.758 2.758 0 0 0-.828 1.375 7.054 7.054 0 0 0-.218 1.804c0 .36.023.736.07 1.126.046.39.157.79.335 1.2.177.409.459.754.847 1.034.388.281.89.422 1.505.422.611 0 1.108-.145 1.49-.434.381-.29.66-.644.835-1.062a4.46 4.46 0 0 0 .328-1.199 9.48 9.48 0 0 0 .067-1.087m2.049.026a4.65 4.65 0 0 1-.557 2.228c-.37.692-.92 1.248-1.647 1.666-.728.418-1.587.627-2.578.627-.81 0-1.521-.133-2.137-.399-.615-.265-1.118-.621-1.509-1.067a4.473 4.473 0 0 1-.866-1.466 4.777 4.777 0 0 1-.281-1.602c0-.776.179-1.509.538-2.2.357-.69.898-1.246 1.618-1.668.721-.422 1.584-.633 2.587-.633.915 0 1.693.152 2.334.456.64.305 1.14.688 1.498 1.151.359.463.615.949.769 1.457.154.508.23.991.23 1.45M103.533 4.174h-.601c-.055-.54-.172-.939-.351-1.196-.18-.258-.373-.416-.579-.476a2.591 2.591 0 0 0-.715-.09H100.2v6.386c0 .253.025.449.075.588.051.14.17.248.355.325.185.077.457.115.815.115v.592h-4.3v-.592c.527 0 .866-.077 1.018-.23.152-.155.228-.421.228-.798V2.412h-.91c-.36 0-.656.029-.893.087-.236.058-.443.216-.623.476-.179.259-.281.658-.306 1.199h-.6V1.698h8.474v2.476zM114.532 4.174h-.601c-.055-.54-.172-.939-.351-1.196-.18-.258-.372-.416-.579-.476a2.596 2.596 0 0 0-.715-.09H111.2v6.386c0 .253.025.449.076.588.05.14.168.248.354.325.185.077.457.115.815.115v.592h-4.3v-.592c.527 0 .866-.077 1.018-.23.152-.155.228-.421.228-.798V2.412h-.91c-.359 0-.656.029-.893.087-.236.058-.443.216-.623.476-.179.259-.281.658-.306 1.199h-.6V1.698h8.474v2.476zM117.022.768h-.696v-.36h1.796v.36h-.696v1.978h-.404z"/>
        <g transform="translate(118.195 .038)">
            <mask id="b" fill="#fff">
                <use xlink:href="#a"/>
            </mask>
            <path fill="#231F20" d="M2.258.937L1.552 2.71h-.173L.676.937V2.71H.272V.369h.569l.625 1.575L2.093.37h.57v2.34h-.405z" mask="url(#b)"/>
        </g>
    </g>
</svg>
