<svg xmlns="http://www.w3.org/2000/svg" width="13" height="14" viewBox="0 0 13 14">
    <path fill="#c4b67e" fill-rule="evenodd" d="M10.883 9.82c-.21-.266-.446-.531-.734-.717-.341-.186-.84-.292-1.18-.053-.158.106-.289.186-.446.292-.131.106-.289.185-.42.291-.393.266-.734.107-1.022-.185-.735-.716-1.443-1.46-2.073-2.281-.236-.292-1.626-1.857-1.232-2.255l.078-.08.184-.185.367-.372.367-.37c.289-.293.289-.823.184-1.194-.105-.319-.341-.61-.55-.876-.368-.45-.788-.928-1.234-1.3C2.858.27 2.491.033 2.097.006a.918.918 0 0 0-.682.212c-.13.106-.262.239-.393.372A4.022 4.022 0 0 0 .13 2.233a3.789 3.789 0 0 0-.105 1.432C.13 4.912.655 6 1.285 7.034c.681 1.14 1.442 2.255 2.307 3.263 1.233 1.405 2.859 2.997 4.695 3.527.446.133.944.212 1.416.16.603-.027 1.233-.24 1.757-.558.157-.106.315-.212.446-.318a1.02 1.02 0 0 0 .341-.636c.026-.451-.13-.85-.341-1.194a11.194 11.194 0 0 0-1.023-1.459z"/>
</svg>
