<svg xmlns="http://www.w3.org/2000/svg" width="20" height="20" viewBox="0 0 20 20">
    <g fill="none" fill-rule="nonzero">
        <path fill="#B1AAAA" d="M18.848 19.946c.607 0 1.098-.491 1.098-1.098V1.144c0-.607-.491-1.099-1.098-1.099H1.144C.537.045.045.537.045 1.144v17.704c0 .607.492 1.098 1.099 1.098h17.704z"/>
        <path fill="#FFF" d="M13.777 19.946V12.24h2.587l.387-3.004h-2.974V7.32c0-.87.241-1.462 1.488-1.462l1.59-.001V3.169a21.26 21.26 0 0 0-2.317-.118c-2.293 0-3.863 1.4-3.863 3.97v2.215H8.082v3.004h2.593v7.706h3.102z"/>
    </g>
</svg>
