<svg xmlns="http://www.w3.org/2000/svg" width="20" height="20" viewBox="0 0 20 20">
    <path fill="#B1AAAA" fill-rule="nonzero" d="M20 3.988a8.204 8.204 0 0 1-2.357.646 4.116 4.116 0 0 0 1.804-2.27c-.792.47-1.67.812-2.605.996A4.103 4.103 0 0 0 9.85 7.102a11.65 11.65 0 0 1-8.458-4.287 4.084 4.084 0 0 0-.555 2.063c0 1.424.724 2.68 1.825 3.415A4.087 4.087 0 0 1 .804 7.78v.052a4.106 4.106 0 0 0 3.29 4.023 4.109 4.109 0 0 1-1.852.07 4.107 4.107 0 0 0 3.833 2.85 8.233 8.233 0 0 1-5.096 1.757c-.331 0-.658-.02-.979-.058a11.614 11.614 0 0 0 6.29 1.844c7.547 0 11.674-6.253 11.674-11.675 0-.178-.004-.355-.011-.53A8.34 8.34 0 0 0 20 3.987"/>
</svg>
