<svg xmlns="http://www.w3.org/2000/svg" width="20" height="21" viewBox="0 0 20 21">
    <g fill="none" fill-rule="evenodd">
        <path fill="#B1AAAA" fill-rule="nonzero" d="M5.516 16.88l.302.18a8.255 8.255 0 0 0 4.207 1.151h.003c4.556 0 8.264-3.707 8.266-8.263a8.213 8.213 0 0 0-2.419-5.846 8.212 8.212 0 0 0-5.844-2.423c-4.559 0-8.267 3.706-8.269 8.262a8.24 8.24 0 0 0 1.264 4.398l.197.312-.835 3.05 3.128-.82zM0 20.063l1.41-5.152a9.922 9.922 0 0 1-1.326-4.97C.086 4.46 4.547 0 10.029 0a9.882 9.882 0 0 1 7.034 2.916 9.882 9.882 0 0 1 2.91 7.033c-.002 5.481-4.464 9.942-9.944 9.942h-.005c-1.664-.001-3.3-.419-4.752-1.21L0 20.062z"/>
        <path fill="#FFF" fill-rule="nonzero" d="M.426 9.946c0 1.691.442 3.343 1.282 4.798L.346 19.717l5.09-1.334a9.599 9.599 0 0 0 4.587 1.168h.004c5.291 0 9.598-4.306 9.6-9.597a9.538 9.538 0 0 0-2.81-6.79 9.54 9.54 0 0 0-6.79-2.815C4.735.35.428 4.654.427 9.946"/>
        <path fill="#B1AAAA" fill-rule="nonzero" d="M.084 9.943c-.001 1.752.457 3.463 1.327 4.97L0 20.065l5.272-1.383a9.939 9.939 0 0 0 4.752 1.21h.004c5.48 0 9.943-4.46 9.945-9.941a9.881 9.881 0 0 0-2.91-7.033A9.882 9.882 0 0 0 10.028.002C4.547.002.086 4.462.083 9.943zm3.139 4.71l-.197-.312a8.24 8.24 0 0 1-1.264-4.397c.002-4.556 3.71-8.263 8.27-8.263 2.207.001 4.282.862 5.843 2.423a8.213 8.213 0 0 1 2.419 5.846c-.002 4.556-3.71 8.263-8.266 8.263h-.003c-1.484 0-2.938-.399-4.207-1.152l-.302-.179-3.129.82.836-3.048z"/>
        <path fill="#B1AAAA" d="M7.543 5.787c-.186-.414-.382-.422-.56-.43-.144-.006-.31-.005-.475-.005a.913.913 0 0 0-.663.31c-.228.25-.87.85-.87 2.073 0 1.222.89 2.404 1.015 2.57.124.165 1.719 2.754 4.244 3.75 2.1.828 2.527.663 2.982.622.456-.042 1.47-.601 1.677-1.181.207-.58.207-1.078.145-1.182-.062-.103-.227-.165-.476-.29-.249-.124-1.47-.725-1.698-.808-.228-.083-.393-.124-.56.125-.165.248-.64.808-.786.973-.145.166-.29.187-.538.063-.249-.125-1.049-.387-1.998-1.233-.739-.659-1.238-1.472-1.383-1.721-.145-.249-.015-.383.11-.507.111-.111.248-.29.372-.435.124-.145.166-.249.248-.415.083-.165.042-.31-.02-.435-.062-.124-.545-1.353-.766-1.844"/>
    </g>
</svg>
