<svg xmlns="http://www.w3.org/2000/svg" width="67" height="60" viewBox="0 0 67 60">
    <g fill="#949494" fill-rule="evenodd">
        <path d="M.488 58.761L1.025 59.438 28.613 40.275 28.077 39.597zM7.957 0L7.957 25.265 8.857 25.265 8.857.844 57.523.844 57.523 25.265 58.423 25.265 58.423 0z"/>
        <path d="M57.717 14.841L64.866 19.467 33.223 42.972 1.513 19.467 8.662 14.841 8.151 14.146 0 19.42 33.224 44.049 66.38 19.42 58.229 14.146z"/>
        <path d="M65.366 19.443L65.366 58.677 1.015 58.677 1.015 19.443 0.115 19.443 0.115 59.521 66.266 59.521 66.266 19.443z"/>
        <path d="M37.766 40.275L65.355 59.438 65.891 58.761 38.303 39.598z"/>
    </g>
</svg>
